<svg width="6" height="11" viewBox="0 0 6 11" fill="none" xmlns="http://www.w3.org/2000/svg">
    <path
        d="M1.63027 7.178V8.06H3.46427V8.466H1.63027V11H1.16827V8.466H0.42627V8.06H1.16827V7.178H0.42627V6.786H1.16827V0.5H1.63027C2.7316 0.5 3.59027 0.794 4.20627 1.382C4.82227 1.96067 5.13027 2.74 5.13027 3.72C5.13027 4.40133 4.98094 5.008 4.68227 5.54C4.3836 6.06267 3.9776 6.46867 3.46427 6.758C2.95094 7.038 2.37694 7.178 1.74227 7.178H1.63027ZM1.63027 6.772H1.77027C2.6196 6.772 3.31494 6.51067 3.85627 5.988C4.3976 5.456 4.66827 4.70933 4.66827 3.748C4.66827 2.83333 4.4116 2.13333 3.89827 1.648C3.39427 1.15333 2.6756 0.906001 1.74227 0.906001H1.63027V6.772Z"
        fill="#00272C"/>
</svg>
