<svg width="54" height="54" viewBox="0 0 54 54" fill="none" xmlns="http://www.w3.org/2000/svg">
<circle cx="27" cy="27" r="27" transform="rotate(-180 27 27)" fill="#586E58"/>
<path d="M40.1393 21.6376L39.4914 18.3992L37.6873 19.1214C36.1044 19.755 34.4162 20.3486 32.6579 20.8899C31.8813 18.7764 30.708 16.6757 29.1621 14.6333L27.1689 12L25.8592 13.4356C23.7715 15.7239 21.4156 17.9483 18.6568 20.2359C16.4795 22.0413 14.938 24.5639 14.3163 27.3391C13.6753 30.2001 14.0126 33.1104 15.2916 35.7553L18.7952 43H22.6273C25.9771 43 28.9402 42.4863 31.4342 41.4731C33.7989 40.5125 35.7557 39.1009 37.2505 37.2776C40.3698 33.4724 41.3957 27.918 40.1393 21.6376ZM37.047 21.3153C35.852 23.7235 34.3573 26.1128 32.5841 28.4421C30.7614 30.8363 28.6438 33.1726 26.2901 35.3861C23.8351 37.695 21.6274 39.3904 20.273 40.3653V34.6141C20.273 32.0903 21.1003 29.7139 22.6655 27.7418C24.1847 25.8275 26.3199 24.4529 28.6778 23.8713C29.6343 23.6354 30.5743 23.3869 31.4835 23.13L31.4851 23.1349L32.3154 22.8901C32.3233 22.8878 32.3313 22.8855 32.3391 22.8832V22.8832C33.9688 22.4025 35.5459 21.8766 37.047 21.3153ZM16.0888 27.7362C16.623 25.3513 17.9468 23.1843 19.8163 21.6342C22.5693 19.3514 24.9341 17.1259 27.0385 14.8374L27.7138 15.7296C29.1235 17.5922 30.1959 19.497 30.9107 21.4042C30.0456 21.6477 29.1519 21.8835 28.2427 22.1077C25.4966 22.7851 23.0106 24.3851 21.2426 26.6127C19.42 28.9093 18.4566 31.6761 18.4566 34.6141V38.1278L16.9269 34.9646C15.8281 32.6926 15.5383 30.193 16.0888 27.7362ZM35.8456 36.1261C34.5453 37.7123 32.8311 38.9451 30.7506 39.7903C28.4747 40.7149 25.7416 41.1836 22.6273 41.1836H22.2307C23.6033 40.1521 25.4588 38.6588 27.5026 36.7394C29.9347 34.4552 32.1251 32.041 34.013 29.5638C35.7597 27.2718 37.2492 24.9201 38.4623 22.5446C39.4464 28.0515 38.5246 32.8581 35.8456 36.1261Z" fill="white"/>
</svg>
