<svg width="60" height="60" viewBox="0 0 60 60" fill="none" xmlns="http://www.w3.org/2000/svg">
    <path
        d="M36.75 23.2881V20.2379C36.75 19.2874 36.5883 18.3462 36.2742 17.4681C35.9602 16.5899 35.4998 15.792 34.9194 15.1199C34.3391 14.4478 33.6501 13.9147 32.8918 13.5509C32.1335 13.1872 31.3208 13 30.5 13C29.6792 13 28.8665 13.1872 28.1082 13.5509C27.3499 13.9147 26.6609 14.4478 26.0806 15.1199C25.5002 15.792 25.0398 16.5899 24.7258 17.4681C24.4117 18.3462 24.25 19.2874 24.25 20.2379V27.4757C24.25 27.75 24.3441 28.013 24.5115 28.2069C24.679 28.4008 24.9061 28.5097 25.1429 28.5097C25.3797 28.5097 25.6068 28.4008 25.7742 28.2069C25.9416 28.013 26.0357 27.75 26.0357 27.4757V25.3561H32.1786C32.7309 25.3561 33.1786 24.9084 33.1786 24.3561V24.2881C33.1786 23.7358 32.7309 23.2881 32.1786 23.2881H26.0357V20.2379C26.0357 18.8667 26.5061 17.5517 27.3433 16.5822C28.1805 15.6126 29.316 15.068 30.5 15.068C31.684 15.068 32.8195 15.6126 33.6567 16.5822C34.4939 17.5517 34.9643 18.8667 34.9643 20.2379V27.424C34.9643 27.6983 35.0584 27.9613 35.2258 28.1552C35.3932 28.3491 35.6203 28.458 35.8571 28.458C36.0939 28.458 36.321 28.3491 36.4885 28.1552C36.6559 27.9613 36.75 27.6983 36.75 27.424V25.3561H40.2143C40.7666 25.3561 41.2143 25.8038 41.2143 26.3561V42.9678C41.2143 43.52 40.7666 43.9678 40.2143 43.9678H20.7857C20.2334 43.9678 19.7857 43.52 19.7857 42.9678V26.3561C19.7857 25.8038 20.2334 25.3561 20.7857 25.3561H21.4643C22.0166 25.3561 22.4643 24.9084 22.4643 24.3561V24.2881C22.4643 23.7358 22.0166 23.2881 21.4643 23.2881H20C18.8954 23.2881 18 24.1835 18 25.2881V44.0608C18 44.5846 18.1797 45.0869 18.4995 45.4573C18.8193 45.8276 19.2531 46.0357 19.7054 46.0357H41.2946C41.7469 46.0357 42.1807 45.8276 42.5005 45.4573C42.8203 45.0869 43 44.5846 43 44.0608V25.2881C43 24.1835 42.1046 23.2881 41 23.2881H36.75Z"
        fill="#00272C"/>
    <circle cx="30" cy="30" r="29" stroke="#00272C" stroke-width="2"/>
</svg>
