<svg width="60" height="60" viewBox="0 0 60 60" fill="none" xmlns="http://www.w3.org/2000/svg">
    <circle cx="30" cy="30" r="28.75" stroke="white" stroke-width="2.5"/>
    <path
        d="M42.4454 18.5736C41.7059 17.8341 40.5114 17.8341 39.7719 18.5736L30.5 27.8265L21.2281 18.5546C20.4886 17.8151 19.2941 17.8151 18.5546 18.5546C17.8151 19.2941 17.8151 20.4886 18.5546 21.2281L27.8265 30.5L18.5546 39.7719C17.8151 40.5114 17.8151 41.7059 18.5546 42.4454C19.2941 43.1849 20.4886 43.1849 21.2281 42.4454L30.5 33.1735L39.7719 42.4454C40.5114 43.1849 41.7059 43.1849 42.4454 42.4454C43.1849 41.7059 43.1849 40.5114 42.4454 39.7719L33.1735 30.5L42.4454 21.2281C43.1659 20.5076 43.1659 19.2941 42.4454 18.5736Z"
        fill="white"/>
</svg>
